<svg width="121" height="20" viewBox="0 0 121 20" fill="none" xmlns="http://www.w3.org/2000/svg">
<path d="M55.4729 5.81641H49.3025C47.1816 5.81641 44.7578 6.50503 44.7578 9.94814V12.4275C44.7578 15.8428 47.1816 16.5315 49.3025 16.5315H55.4723C57.5932 16.5315 60.017 15.8428 60.017 12.4275V9.94814C60.0176 6.50503 57.566 5.81641 55.4729 5.81641ZM55.8586 11.8762C55.8586 13.2534 55.3345 13.5841 52.6618 13.5841H51.6702C49.7695 13.5841 48.8607 13.1434 48.8607 11.6561V10.664C48.8607 9.17672 49.7972 8.73598 51.6702 8.73598H52.6618C55.3345 8.73598 55.8586 9.06666 55.8586 10.4439V11.8762Z" fill="#DDDDDD"/>
<path d="M75.4228 10.2152C75.4228 7.57072 74.7892 5.78051 69.5533 5.78051H68.3139C66.606 5.78051 64.8708 6.22125 64.593 7.84638H64.538V1.59375H60.4062V16.3577H64.2901V14.457H64.3425C64.7833 15.7514 65.8303 16.5228 68.3364 16.5228H69.5486C74.7819 16.5228 75.4181 14.7599 75.4181 12.0882L75.4228 10.2152ZM71.4012 11.757C71.4012 12.9136 71.2083 13.5749 69.2252 13.5749H66.8014C65.1768 13.5749 64.2948 13.2443 64.2948 11.6747V10.6564C64.2948 9.08423 65.1485 8.75564 66.8014 8.75564H69.2268C71.2104 8.75564 71.4027 9.41701 71.4027 10.5736L71.4012 11.757Z" fill="#DDDDDD"/>
<path d="M75.7522 16.282C75.7522 16.9429 75.4493 17.3013 74.6517 17.3013C74.5416 17.3013 74.4038 17.2736 74.2109 17.2736V19.8902C74.6517 19.918 75.2591 20.0003 75.8355 20.0003C78.2593 20.0003 79.8572 19.2839 79.8572 17.0529V5.98047H75.725V16.282H75.7522Z" fill="#DDDDDD"/>
<path d="M116.873 11.7597V12.4483C116.873 13.4126 116.515 13.6877 115.165 13.6877C114.174 13.6877 113.568 13.5226 113.568 12.7512V8.78454H116.901V5.97502H113.568V3.52344H109.436V5.97502H107.37V6.60861C106.278 6.00202 105.037 5.71661 103.789 5.78531H99.1339C96.6551 5.78531 94.8366 6.36178 94.2601 8.73265C93.7643 6.39113 91.8913 5.78531 88.2003 5.78531H85.307C82.2768 5.78531 80.2109 6.63953 80.2109 10.5784V11.5699C80.2109 16.0046 83.1033 16.5004 85.83 16.5004H88.9424C91.7519 16.5004 94.0934 16.0046 94.3686 13.7459C95.195 16.1697 97.4815 16.5004 99.6847 16.5004H103.899C106.268 16.5004 108.72 15.7017 108.72 12.9199V12.0112H104.697V12.2591C104.697 13.2234 103.649 13.4713 102.466 13.4713H100.348C99.0532 13.4713 98.1466 13.0583 98.1466 11.7083V10.3311C98.1466 9.20169 98.973 8.7337 100.68 8.7337H102.278C104.096 8.7337 104.674 9.11941 104.674 10.1932H108.696V9.25462C108.701 9.09794 108.691 8.94116 108.668 8.78611H109.412V12.8906C109.412 15.7551 111.613 16.5266 114.149 16.5266H115.774C119.079 16.5266 120.457 15.0115 120.457 13.0284V11.7597H116.873ZM87.3728 8.23374C89.7966 8.23374 90.3752 8.45437 90.3752 9.69327H84.3427C84.3705 8.4811 84.6734 8.23374 87.3728 8.23374ZM90.513 12.889C90.513 13.4948 90.403 14.0734 88.172 14.0734H86.9048C85.1697 14.0734 84.371 13.7705 84.371 12.6689V12.0353H94.094C94.1217 12.3382 94.1464 12.6411 94.1768 12.8895L90.513 12.889Z" fill="#DDDDDD"/>
<path d="M9.11875 5.80897H7.87933C6.1714 5.80897 4.43622 6.24971 4.15846 7.87484H4.13069V4.10156H0V16.3605H3.88385V14.4597H3.93626C4.377 15.7542 5.42356 16.5528 7.93017 16.5528H9.14233C14.3757 16.5528 15.0119 14.7899 15.0119 12.1182V10.2457C14.9883 7.57402 14.3526 5.80897 9.11875 5.80897ZM10.9918 11.7859C10.9918 12.9431 10.7989 13.6039 8.81584 13.6039H6.39361C4.769 13.6039 3.887 13.246 3.887 11.6759V10.6587C3.887 9.08648 4.7407 8.75841 6.39361 8.75841H8.81741C10.8005 8.75841 10.9933 9.41926 10.9933 10.5764L10.9918 11.7859Z" fill="#DDDDDD"/>
<path d="M15.6484 5.98047H19.7802V16.3648H15.6484V5.98047Z" fill="#DDDDDD"/>
<path d="M39.0052 5.81641H37.7385C35.397 5.81641 34.5155 6.3672 33.8269 8.24021C33.0554 6.61508 31.7081 5.81641 29.7501 5.81641H28.1779C26.1399 5.81641 24.7348 6.5328 24.5147 8.01748H24.4623V5.98149H20.5234V16.3659H24.6552V10.8846C24.6552 9.2873 25.4816 8.87381 27.2718 8.87381C29.7784 8.87381 30.2742 9.20449 30.2742 10.4712V16.3659H34.4059V10.6378C34.4059 9.26057 35.2324 8.87486 37.2155 8.87486C39.6393 8.87486 40.025 9.37062 40.025 10.8029V16.3947H44.1567V10.5262C44.1284 7.55159 42.7512 5.81641 39.0052 5.81641Z" fill="#DDDDDD"/>
<path d="M120.542 1.73598C120.538 1.96982 120.488 2.20056 120.395 2.41482C120.301 2.62908 120.165 2.82258 119.996 2.98407C119.827 3.14557 119.628 3.27184 119.409 3.35555C119.191 3.43925 118.958 3.47873 118.724 3.47169C118.49 3.48112 118.256 3.44328 118.037 3.36044C117.817 3.27759 117.617 3.15143 117.447 2.98947C117.277 2.82751 117.142 2.63306 117.049 2.41771C116.956 2.20236 116.908 1.97052 116.906 1.73598C116.91 1.5022 116.96 1.2715 117.054 1.05731C117.148 0.843108 117.283 0.649672 117.452 0.488234C117.622 0.326796 117.821 0.200573 118.039 0.116897C118.258 0.0332201 118.491 -0.00624243 118.724 0.000801071C118.958 -0.00624243 119.191 0.0332201 119.409 0.116897C119.627 0.200573 119.827 0.326796 119.996 0.488234C120.165 0.649672 120.301 0.843108 120.394 1.05731C120.488 1.2715 120.538 1.5022 120.542 1.73598ZM117.182 1.73598C117.183 1.93574 117.224 2.13331 117.302 2.31701C117.381 2.5007 117.495 2.66679 117.639 2.80546C117.783 2.94412 117.953 3.05254 118.139 3.12431C118.326 3.19608 118.525 3.22973 118.724 3.22328C118.924 3.22973 119.123 3.19608 119.309 3.12431C119.496 3.05254 119.666 2.94412 119.81 2.80546C119.953 2.66679 120.068 2.5007 120.146 2.31701C120.225 2.13331 120.266 1.93574 120.267 1.73598C120.266 1.53622 120.225 1.33865 120.146 1.15496C120.068 0.971264 119.953 0.805173 119.81 0.666509C119.666 0.527846 119.496 0.419424 119.309 0.347657C119.123 0.275891 118.924 0.242236 118.724 0.248684C118.525 0.242165 118.326 0.275766 118.139 0.347501C117.953 0.419235 117.782 0.527645 117.639 0.666316C117.495 0.804987 117.38 0.971103 117.302 1.15483C117.223 1.33856 117.183 1.53618 117.182 1.73598ZM118.311 2.75791H118.063V0.744451H118.862C119.33 0.744451 119.551 0.937307 119.551 1.29524C119.553 1.36608 119.542 1.43677 119.517 1.50311C119.492 1.56944 119.454 1.63009 119.405 1.68145C119.356 1.73281 119.298 1.77384 119.233 1.80212C119.168 1.83039 119.098 1.84532 119.027 1.84604L119.661 2.72752H119.358L118.752 1.84604H118.311L118.311 2.75791ZM118.669 1.65737C118.999 1.65737 119.302 1.65737 119.302 1.29891C119.302 1.02378 119.054 0.968751 118.807 0.968751H118.339V1.65737H118.669Z" fill="#DDDDDD"/>
<path d="M19.7802 2.41352C19.7802 1.86562 19.5625 1.34016 19.1751 0.952735C18.7877 0.56531 18.2622 0.347656 17.7143 0.347656C17.1664 0.347656 16.6409 0.56531 16.2535 0.952735C15.8661 1.34016 15.6484 1.86562 15.6484 2.41352C15.6484 2.96143 15.8661 3.48689 16.2535 3.87431C16.6409 4.26174 17.1664 4.47939 17.7143 4.47939C18.2622 4.47939 18.7877 4.26174 19.1751 3.87431C19.5625 3.48689 19.7802 2.96143 19.7802 2.41352Z" fill="#DDDDDD"/>
</svg>
