<svg width="125" height="22" viewBox="0 0 125 22" fill="none" xmlns="http://www.w3.org/2000/svg">
<path d="M6.55924 1.57134C6.55924 0.874948 6.14139 0 4.40037 0C3.68655 0 1.71918 0 1.71918 0L0.953125 3.62479C0.953125 3.62479 2.39818 3.62479 3.75618 3.62479C5.94988 3.60693 6.55924 2.55342 6.55924 1.57134Z" fill="#DDDDDD"/>
<path d="M13.7858 1.57134C13.7858 0.874948 13.368 0 11.6269 0C10.9131 0 8.94574 0 8.94574 0L8.17969 3.62479C8.17969 3.62479 9.62474 3.62479 10.9653 3.62479C13.1764 3.60693 13.7858 2.55342 13.7858 1.57134Z" fill="#DDDDDD"/>
<path d="M5.60611 6.99712C5.60611 6.30074 5.18827 5.42578 3.44724 5.42578C2.73342 5.42578 0.766054 5.42578 0.766054 5.42578L0 9.05057C0 9.05057 1.44505 9.05057 2.78564 9.05057C4.97934 9.05057 5.60611 7.9792 5.60611 6.99712Z" fill="#DDDDDD"/>
<path d="M12.8327 6.99712C12.8327 6.30074 12.4148 5.42578 10.6738 5.42578C9.95999 5.42578 7.99262 5.42578 7.99262 5.42578L7.22656 9.05057C7.22656 9.05057 8.67162 9.05057 10.0296 9.05057C12.2059 9.05057 12.8327 7.9792 12.8327 6.99712Z" fill="#DDDDDD"/>
<path d="M20.3874 4.80571C20.3874 4.10932 19.9695 3.23438 18.2285 3.23438C17.5147 3.23438 15.5473 3.23438 15.5473 3.23438L14.7812 6.85916C14.7812 6.85916 16.2263 6.85916 17.5669 6.85916C19.7606 6.84131 20.3874 5.7878 20.3874 4.80571Z" fill="#DDDDDD"/>
<path d="M19.3483 10.4659C19.3483 9.76948 18.9305 8.89453 17.1894 8.89453C16.4756 8.89453 14.5082 8.89453 14.5082 8.89453L13.7422 12.5193C13.7422 12.5193 15.1872 12.5193 16.5278 12.5193C18.7215 12.5193 19.3483 11.448 19.3483 10.4659Z" fill="#DDDDDD"/>
<path d="M11.7858 12.6768C11.7858 11.9804 11.368 11.1055 9.62692 11.1055C8.9131 11.1055 6.94574 11.1055 6.94574 11.1055L6.17969 14.7303C6.17969 14.7303 7.62474 14.7303 8.96533 14.7303C11.159 14.7124 11.7858 13.6589 11.7858 12.6768Z" fill="#DDDDDD"/>
<path d="M59.8902 13.749C59.7683 14.0169 59.159 15.2311 57.6269 15.2311C55.851 15.2311 55.1546 13.7133 55.1546 12.6062C55.1546 10.7492 56.3733 9.08857 58.1666 9.08857C60.0991 9.08857 60.5518 10.5706 60.604 10.8385H63.4419C63.616 9.74925 62.7629 6.41016 58.2711 6.41016C54.9805 6.41016 52.3516 9.10643 52.3516 12.6955C52.3516 15.6418 54.1448 17.9095 57.4702 17.9095C61.6138 17.9095 62.7281 14.5704 62.8674 13.749L59.8902 13.749Z" fill="#DDDDDD"/>
<path d="M38.0953 14.5551C38.0953 14.3766 38.1475 14.0552 38.2868 13.3945C38.426 12.716 40.4282 3.23438 40.4282 3.23438H37.7645L35.5533 13.698C35.4663 14.1445 35.4141 14.573 35.4141 14.948C35.4141 17.2336 37.1377 17.9121 38.5305 17.9121C39.018 17.9121 39.4881 17.8228 39.5925 17.8049C39.6448 17.5728 40.0626 15.6086 40.08 15.5194C40.0278 15.5194 39.7318 15.5551 39.3836 15.5551C38.3912 15.5551 38.0953 15.1265 38.0953 14.5551Z" fill="#DDDDDD"/>
<path d="M75.9428 6.42894H72.2344L67.4466 10.8394L69.0657 3.21484H66.3671L63.3203 17.6783H66.0015L66.7501 14.1606L68.4041 12.8214L70.6849 17.6783H73.6794L70.4411 11.1787L75.9428 6.42894Z" fill="#DDDDDD"/>
<path d="M23.4362 13.2143C23.6625 12.1786 25.5428 3.21484 25.5428 3.21484C25.5428 3.21484 28.7986 3.21484 30.6266 3.21484C34.3176 3.21484 35.2229 5.32187 35.2229 6.58964C35.2229 9.41091 32.6288 10.1609 32.3154 10.2501C32.6114 10.3573 34.3002 11.0358 34.3002 13.25C34.3002 15.6605 32.1413 17.6785 28.7811 17.6785C28.7811 17.6785 27.5798 17.6785 27.249 17.6785C24.4112 17.6961 22.8965 15.6963 23.4362 13.2143ZM31.3927 13.0357C31.3927 12.3572 30.9574 11.5001 29.0771 11.5001H26.6223L25.891 14.9999H28.6767C30.4525 14.9999 31.3927 14.1606 31.3927 13.0357ZM32.298 7.19675C32.298 6.50036 31.7757 5.89325 30.5048 5.89325H27.7888L27.1794 8.82166H30.0173C31.5146 8.82166 32.298 8.05384 32.298 7.19675Z" fill="#DDDDDD"/>
<path d="M74.7252 13.2143C74.9516 12.1786 76.8319 3.21484 76.8319 3.21484C76.8319 3.21484 80.0876 3.21484 81.9157 3.21484C85.6067 3.21484 86.512 5.32187 86.512 6.58964C86.512 9.41091 83.9179 10.1609 83.6045 10.2501C83.9005 10.3573 85.5893 11.0358 85.5893 13.25C85.5893 15.6605 83.413 17.6785 80.0702 17.6785C80.0702 17.6785 78.8689 17.6785 78.5381 17.6785C75.7002 17.6961 74.1855 15.6963 74.7252 13.2143ZM82.6817 13.0357C82.6817 12.3572 82.2465 11.5001 80.3662 11.5001H77.8939L77.1627 14.9999H79.9483C81.7416 14.9999 82.6817 14.1606 82.6817 13.0357ZM83.5871 7.19675C83.5871 6.50036 83.0648 5.89325 81.7764 5.89325H79.0778L78.4685 8.82166H81.3063C82.8036 8.82166 83.5871 8.05384 83.5871 7.19675Z" fill="#DDDDDD"/>
<path d="M104.949 6.42969C102.111 6.42969 100.161 8.16173 99.5167 11.3937C99.2381 12.7865 98.2109 17.679 98.2109 17.679H100.875C100.875 17.679 101.85 13.0186 102.163 11.5544C102.564 9.64379 103.556 8.98311 104.879 8.98311C105.314 8.98311 105.575 9.03668 105.715 9.05454C105.784 8.66171 106.167 6.92966 106.254 6.51897C105.976 6.50112 105.523 6.42969 104.949 6.42969Z" fill="#DDDDDD"/>
<path d="M113.999 21.9985L122.948 6.42801H120.075L115.966 13.749L115.009 6.41016C115.009 6.41016 113.546 6.41016 111.927 6.41016C108.393 6.41016 106.565 8.07077 105.921 11.2313C105.59 12.8026 104.562 17.6773 104.562 17.6773H107.226C107.226 17.6773 108.201 13.0526 108.602 11.1956C108.985 9.39212 110.29 8.83858 111.701 9.14214L112.258 6.48158C112.676 8.99929 113.947 17.0702 113.947 17.0702L111.161 21.9985H113.999Z" fill="#DDDDDD"/>
<path d="M45.7869 12.8919C46.3789 12.8026 48.0851 12.5348 48.3288 12.4991C48.2766 12.6955 48.2244 12.9812 48.1721 13.2133C47.8587 14.5704 46.5182 15.4453 45.0209 15.4453C44.0633 15.4453 43.5062 14.9275 43.5062 14.3026C43.4888 13.7847 43.9589 13.1598 45.7869 12.8919ZM44.7771 9.96352C44.8468 9.85639 45.5258 8.76716 47.232 8.76716C48.294 8.76716 48.8337 9.16 48.8337 9.64211C48.8337 10.3206 47.7717 10.4992 45.9088 10.767C42.7227 11.2313 40.7031 12.2491 40.7031 14.6061C40.7031 16.2846 42.0611 17.9095 44.4637 17.9095C46.4659 17.9095 47.5105 16.6774 47.5976 16.5703C47.615 16.8738 47.6498 17.3202 47.6672 17.6774C47.8936 17.6774 49.7391 17.6774 50.4181 17.6774C50.331 17.1952 50.1221 16.2489 50.4529 14.749C50.627 13.9633 51.1145 11.6956 51.3582 10.4456C51.8283 8.07077 50.5574 6.41016 47.319 6.41016C43.1406 6.41016 41.9393 9.4814 41.7477 9.96352H44.7771Z" fill="#DDDDDD"/>
<path d="M94.2744 14.3187C94.1699 14.533 93.5257 15.4615 92.0807 15.4615C89.9914 15.4615 89.5214 13.6402 89.5736 13.1581C90.6879 13.1581 97.1122 13.1581 97.7042 13.1581C97.7564 12.9617 97.9305 12.2117 97.9305 11.4439C97.9305 8.80119 96.1895 6.39062 92.6726 6.39062C89.4517 6.39062 86.875 9.15832 86.875 12.4617C86.875 15.6401 88.7379 17.9078 92.0459 17.9078C96.1199 17.9078 97.2167 14.6401 97.3212 14.3187C96.5899 14.3187 94.2744 14.3187 94.2744 14.3187ZM92.7074 8.89047C94.5007 8.89047 95.1797 10.0154 95.1101 10.9082C94.0829 10.9082 91.0187 10.9082 89.974 10.9082C90.1133 10.3368 90.9664 8.89047 92.7074 8.89047Z" fill="#DDDDDD"/>
<path d="M122.961 14.3008C123.78 14.3008 124.467 14.9667 124.467 15.8546C124.467 16.7595 123.763 17.4084 122.961 17.4084C122.142 17.4084 121.438 16.7425 121.438 15.8546C121.438 14.9667 122.142 14.3008 122.961 14.3008ZM122.961 14.5569C122.273 14.5569 121.732 15.1204 121.732 15.8546C121.732 16.6059 122.273 17.1693 122.961 17.1693C123.649 17.1693 124.173 16.6229 124.173 15.8546C124.173 15.1204 123.632 14.5569 122.961 14.5569ZM122.633 16.7595H122.371V14.9667H123.026C123.436 14.9667 123.632 15.1204 123.632 15.4789C123.632 15.8034 123.436 15.9399 123.174 15.9741L123.665 16.7595H123.37L122.911 15.9741H122.617V16.7595H122.633ZM122.633 15.7521H122.944C123.272 15.7521 123.37 15.6497 123.37 15.4619C123.37 15.2911 123.288 15.1887 122.993 15.1887H122.633V15.7521Z" fill="#DDDDDD"/>
</svg>
