<svg width="240" height="135" viewBox="0 0 240 135" fill="none" xmlns="http://www.w3.org/2000/svg">
<rect y="-0.00390625" width="240" height="135" rx="16" fill="#363636"/>
<path fill-rule="evenodd" clip-rule="evenodd" d="M96.2913 68.8255H90.8203V68.5908H91.2244C91.7872 68.5908 91.9945 68.4079 91.9945 67.7833V62.361C91.9945 61.7139 91.7991 61.4451 91.0273 61.4451H90.8561V61.2109H94.4675V61.4451H94.0136C93.2174 61.4451 93.0101 61.5309 93.0101 62.2879V67.931C93.0101 68.2625 93.1448 68.3838 93.5004 68.3838H95.2995C96.0206 68.3838 96.2409 68.1036 97.0126 67.0373H97.2324L96.2913 68.8255Z" fill="#DDDDDD"/>
<path fill-rule="evenodd" clip-rule="evenodd" d="M108.343 61.2109V61.4451C107.522 61.4551 107.227 61.787 107.227 62.5709V65.8734C107.227 67.3898 106.261 69.0193 103.605 69.0193C101.268 69.0193 100.069 67.6863 100.069 65.9351V62.361C100.069 61.5799 99.8489 61.4557 99.0156 61.4451V61.2109H102.16V61.4451H102.051C101.378 61.4451 101.084 61.6281 101.084 62.339V65.7386C101.084 67.3898 102.051 68.3838 103.875 68.3838C105.257 68.3838 106.666 67.8099 106.666 65.7279V62.8753C106.666 61.7012 106.481 61.4926 105.465 61.4451V61.2109H108.343Z" fill="#DDDDDD"/>
<path fill-rule="evenodd" clip-rule="evenodd" d="M115.424 68.8255H109.953V68.5908H110.357C110.921 68.5908 111.129 68.4079 111.129 67.7833V62.361C111.129 61.7139 110.934 61.4451 110.162 61.4451H109.989V61.2109H113.602V61.4451H113.148C112.352 61.4451 112.145 61.5309 112.145 62.2879V67.931C112.145 68.2625 112.279 68.3838 112.634 68.3838H114.433C115.155 68.3838 115.376 68.1036 116.146 67.0373H116.365L115.424 68.8255Z" fill="#DDDDDD"/>
<path fill-rule="evenodd" clip-rule="evenodd" d="M123.613 66.0699H123.382C123.283 65.2029 123.051 65.1057 122.547 65.1057H120.481V67.7104C120.481 68.2735 120.685 68.3838 121.141 68.3838H123.027C123.883 68.3838 124.136 68.0529 124.444 67.0021H124.664L124.468 68.8255H117.969V68.5908H118.312C119.291 68.5908 119.462 68.322 119.462 67.5893V62.4248C119.462 61.7381 119.305 61.4451 118.484 61.4451H118.216V61.2109H124.09L124.187 62.9129H123.967C123.811 61.8729 123.504 61.6522 123.061 61.6522H120.481V64.6645H122.668C123.11 64.6645 123.32 64.4538 123.382 63.7458H123.613V66.0699Z" fill="#DDDDDD"/>
<path fill-rule="evenodd" clip-rule="evenodd" d="M132.173 59.2921C132.173 59.9036 131.672 60.4073 131.064 60.4073C130.452 60.4073 129.945 59.9036 129.945 59.2921C129.945 58.6805 130.452 58.1797 131.064 58.1797C131.672 58.1797 132.173 58.6805 132.173 59.2921ZM130.274 59.2921C130.274 59.7262 130.624 60.081 131.064 60.081C131.497 60.081 131.85 59.7262 131.85 59.2921C131.85 58.8586 131.497 58.5053 131.064 58.5053C130.624 58.5053 130.274 58.8586 130.274 59.2921ZM129.557 65.4471L128.847 67.3651C128.761 67.5996 128.599 67.9656 128.599 68.1408C128.599 68.4689 128.92 68.5903 129.592 68.5903H129.789V68.825H126.961V68.5903C127.756 68.5802 127.892 68.4425 128.284 67.3784L130.511 61.2962L130.401 61.0295H131.467L134.021 67.8201C134.269 68.4689 134.522 68.5903 135.139 68.5903V68.825H131.769V68.5903H132.089C132.785 68.5903 133.043 68.5177 133.043 68.176C133.043 67.9795 132.957 67.796 132.911 67.6746L132.089 65.4471H129.557ZM130.805 62.0581L129.763 64.9087H131.879L130.805 62.0581Z" fill="#DDDDDD"/>
<path fill-rule="evenodd" clip-rule="evenodd" d="M58.9151 81.8182C58.9151 82.478 59.1349 82.7102 59.8823 82.7102H60.3334V82.9414H56.4789V82.7102H56.9331C57.6788 82.7102 57.8995 82.478 57.8995 81.8182V75.7733H55.7703C55.2804 75.7733 55.0603 76.0537 54.8757 77.1282H54.6562L54.8516 75.1484H55.083C55.0971 75.2188 55.1457 75.2705 55.2199 75.2946C55.2928 75.3182 55.3771 75.332 55.4633 75.332H61.3499C61.5211 75.332 61.7057 75.2946 61.7299 75.1484H61.9612L62.1586 77.1282H61.9372C61.7543 76.0537 61.5339 75.7733 61.0443 75.7733H58.9151V81.8182Z" fill="#DDDDDD"/>
<path fill-rule="evenodd" clip-rule="evenodd" d="M69.9383 80.1925H69.7068C69.6085 79.3254 69.3755 79.2285 68.8735 79.2285H66.8062V81.8329C66.8062 82.399 67.0149 82.506 67.4666 82.506H69.3513C70.2082 82.506 70.4654 82.1776 70.771 81.1242H70.9916L70.7954 82.9452H64.2969V82.7141H64.6402C65.6176 82.7141 65.7902 82.4442 65.7902 81.7115V76.5447C65.7902 75.8617 65.6318 75.5676 64.8115 75.5676H64.5418V75.3359H70.4168L70.5138 77.0353H70.2941C70.1336 75.9949 69.8296 75.7771 69.3879 75.7771H66.8062V78.7867H68.9969C69.4364 78.7867 69.645 78.5786 69.7068 77.8702H69.9383V80.1925Z" fill="#DDDDDD"/>
<path fill-rule="evenodd" clip-rule="evenodd" d="M78.2121 82.9452V82.7141C78.7749 82.7 79.0076 82.6028 79.0076 82.3715C79.0076 82.1642 78.7388 81.7467 77.5018 80.5107C76.523 79.5324 76.2298 79.3496 75.691 79.4113V81.6982C75.691 82.4685 75.9116 82.7141 76.6715 82.7141H76.8303V82.9452H73.4766V82.7141H73.6957C74.4797 82.7141 74.6768 82.4442 74.6768 81.822V76.448C74.6768 75.7129 74.3453 75.5676 73.6957 75.5676H73.4766V75.3359H76.7801V75.5676H76.6715C75.9358 75.5676 75.691 75.799 75.691 76.5345V79.1766C76.1688 79.1281 76.549 78.9078 77.0633 78.3932C78.0164 77.4394 78.7629 76.3375 78.7629 75.9468C78.7629 75.6668 78.5795 75.5676 77.9186 75.5676V75.3359H81.1379V75.5676C80.2691 75.5777 79.8889 75.7017 79.5222 76.0678C79.1423 76.448 78.3714 77.9781 77.086 78.9563C77.3072 78.9937 77.5262 79.1766 78.0663 79.7153C79.351 81 80.036 81.957 80.4393 82.3605C80.6474 82.5686 80.9664 82.7141 81.7983 82.7141V82.9452H78.2121Z" fill="#DDDDDD"/>
<path fill-rule="evenodd" clip-rule="evenodd" d="M91.3174 83.0314L84.9779 76.397V81.6499C84.9779 82.5331 85.1733 82.7141 86.2139 82.7141V82.9452H83.375V82.7141H83.4235C84.1834 82.7141 84.4272 82.4583 84.4272 81.8921V75.8741C84.1459 75.6776 83.8276 75.5784 83.3991 75.5676V75.3359H85.3201L91.0843 81.3449V76.4722C91.0843 75.7261 90.8632 75.5917 89.8841 75.5676V75.3359H92.749V75.5676C91.8304 75.5676 91.6355 75.7261 91.6355 76.2056V83.0314H91.3174Z" fill="#DDDDDD"/>
<path fill-rule="evenodd" clip-rule="evenodd" d="M98.1931 82.9452H95.2188V82.7141C95.9786 82.6789 96.136 82.4818 96.136 81.6602V76.448C96.136 75.7879 95.9043 75.6028 95.2188 75.5676V75.3359H98.1931V75.5676C97.4213 75.5676 97.1531 75.7393 97.1531 76.5589V81.7467C97.1531 82.4685 97.3476 82.7141 98.1931 82.7141V82.9452Z" fill="#DDDDDD"/>
<path fill-rule="evenodd" clip-rule="evenodd" d="M101.468 81.083C101.723 82.1738 102.581 82.8073 103.535 82.8073C104.355 82.8073 105.224 82.3301 105.224 81.3654C105.224 79.6015 101.297 79.0627 101.297 76.9212C101.297 75.9055 102.227 75.1484 103.474 75.1484C104.503 75.1484 104.709 75.4535 105.139 75.4535C105.236 75.4535 105.286 75.4292 105.36 75.332H105.555L105.763 76.8834H105.555C105.212 76.0055 104.429 75.4423 103.583 75.4423C102.777 75.4423 102.214 75.9054 102.214 76.5927C102.214 78.33 106.142 78.7958 106.142 81.0455C106.142 82.2462 105.078 83.1378 103.646 83.1378C102.973 83.1378 102.116 82.8072 101.944 82.8072C101.834 82.8072 101.749 82.8688 101.7 82.9414H101.492L101.234 81.083H101.468Z" fill="#DDDDDD"/>
<path fill-rule="evenodd" clip-rule="evenodd" d="M113.134 82.9452V82.7141C113.697 82.7 113.929 82.6028 113.929 82.3715C113.929 82.1642 113.661 81.7467 112.425 80.5107C111.447 79.5324 111.153 79.3496 110.613 79.4113V81.6982C110.613 82.4685 110.832 82.7141 111.593 82.7141H111.751V82.9452H108.398V82.7141H108.618C109.402 82.7141 109.598 82.4442 109.598 81.822V76.448C109.598 75.7129 109.266 75.5676 108.618 75.5676H108.398V75.3359H111.703V75.5676H111.593C110.858 75.5676 110.613 75.799 110.613 76.5345V79.1766C111.091 79.1281 111.47 78.9078 111.984 78.3932C112.939 77.4394 113.686 76.3375 113.686 75.9468C113.686 75.6668 113.502 75.5676 112.84 75.5676V75.3359H116.059V75.5676C115.191 75.5777 114.811 75.7017 114.443 76.0678C114.065 76.448 113.293 77.9781 112.008 78.9563C112.228 78.9937 112.449 79.1766 112.987 79.7153C114.273 81 114.958 81.957 115.362 82.3605C115.569 82.5686 115.889 82.7141 116.719 82.7141V82.9452H113.134Z" fill="#DDDDDD"/>
<path fill-rule="evenodd" clip-rule="evenodd" d="M120.823 79.5638L120.112 81.4873C120.029 81.7187 119.866 82.0879 119.866 82.2575C119.866 82.5858 120.185 82.7102 120.858 82.7102H121.058V82.9414H118.227V82.7102C119.024 82.6962 119.159 82.5649 119.551 81.4973L121.777 75.415L121.667 75.1484H122.731L125.289 81.9393C125.531 82.5858 125.79 82.7102 126.405 82.7102V82.9414H123.038V82.7102H123.358C124.053 82.7102 124.312 82.6375 124.312 82.2949C124.312 82.0978 124.226 81.9149 124.178 81.7913L123.358 79.5638H120.823ZM122.07 76.1751L121.031 79.0276H123.148L122.07 76.1751Z" fill="#DDDDDD"/>
<path fill-rule="evenodd" clip-rule="evenodd" d="M78.6848 89.4609V89.6926C77.8646 89.7047 77.5708 90.0348 77.5708 90.8182V94.121C77.5708 95.6402 76.6045 97.2664 73.9483 97.2664C71.6113 97.2664 70.4108 95.9334 70.4108 94.1825V90.611C70.4108 89.8268 70.1921 89.7057 69.3594 89.6926V89.4609H72.5042V89.6926H72.3939C71.7224 89.6926 71.4284 89.8752 71.4284 90.5838V93.9867C71.4284 95.6402 72.3939 96.631 74.2174 96.631C75.6005 96.631 77.0085 96.0548 77.0085 93.9725V91.1256C77.0085 89.9512 76.8249 89.7409 75.8091 89.6926V89.4609H78.6848Z" fill="#DDDDDD"/>
<path fill-rule="evenodd" clip-rule="evenodd" d="M88.8564 97.1564L82.5186 90.5251V95.7747C82.5186 96.6559 82.714 96.8388 83.7549 96.8388V97.0735H80.9141V96.8388H80.9626C81.7227 96.8388 81.9683 96.5824 81.9683 96.0204V89.9966C81.6858 89.8025 81.3669 89.7057 80.9385 89.6926V89.4609H82.862L88.6251 95.4676V90.598C88.6251 89.8511 88.4047 89.7167 87.4265 89.6926V89.4609H90.2897V89.6926C89.371 89.6926 89.1757 89.8511 89.1757 90.328V97.1564H88.8564Z" fill="#DDDDDD"/>
<path fill-rule="evenodd" clip-rule="evenodd" d="M96.4657 97.0735H93.4922V96.8388C94.2506 96.8036 94.4095 96.6068 94.4095 95.7879V90.5736C94.4095 89.9137 94.1764 89.7301 93.4922 89.6926V89.4609H96.4657V89.6926C95.6956 89.6926 95.426 89.8619 95.426 90.6836V95.8716C95.426 96.5966 95.6214 96.8388 96.4657 96.8388V97.0735Z" fill="#DDDDDD"/>
<path fill-rule="evenodd" clip-rule="evenodd" d="M103.12 97.2664L100.464 90.6487C100.159 89.8752 100.011 89.6926 99.2656 89.6926V89.4609H102.63V89.6926C101.504 89.7167 101.236 89.9723 101.468 90.5384L103.67 96.0204L105.604 90.9638C105.739 90.6221 105.813 90.3796 105.813 90.2069C105.813 89.8409 105.507 89.6926 104.675 89.6926V89.4609H107.513V89.6926C106.877 89.6926 106.547 89.9864 106.253 90.7457L103.732 97.2664H103.12Z" fill="#DDDDDD"/>
<path fill-rule="evenodd" clip-rule="evenodd" d="M114.783 94.3172H114.55C114.453 93.4501 114.22 93.3501 113.717 93.3501H111.65V95.9578C111.65 96.5206 111.858 96.631 112.31 96.631H114.196C115.051 96.631 115.309 96.3003 115.615 95.247H115.836L115.638 97.0735H109.141V96.8388H109.484C110.462 96.8388 110.634 96.5722 110.634 95.8342V90.6698C110.634 89.9864 110.474 89.6926 109.654 89.6926H109.384V89.4609H115.26L115.359 91.16H115.138C114.977 90.1207 114.673 89.8996 114.231 89.8996H111.65V92.9114H113.84C114.28 92.9114 114.489 92.701 114.55 91.9927H114.783V94.3172Z" fill="#DDDDDD"/>
<path fill-rule="evenodd" clip-rule="evenodd" d="M121.019 95.9176C121.019 96.6534 121.313 96.8363 121.994 96.8363H122.277V97.071H118.812V96.8363H119.021C119.743 96.8363 120 96.6423 120 95.8206V90.6673C120 89.9112 119.791 89.6901 119.082 89.6901H118.812V89.4585C119.105 89.4585 119.854 89.407 120.356 89.3825C120.855 89.3583 121.103 89.3477 121.897 89.3477C124.162 89.3477 125.178 90.2802 125.178 91.5272C125.178 92.4429 124.553 93.216 123.549 93.5095C124.004 93.862 124.372 94.2045 124.946 94.7818L125.91 95.7481C126.633 96.4705 127.379 96.9225 128.321 96.9841V97.2025C126.183 97.3024 125.631 96.8364 124.542 95.7481L123.731 94.9425C123.193 94.4015 122.767 94.046 122.473 93.852C122.167 93.8621 121.972 93.8762 121.638 93.8762C121.371 93.8762 121.213 93.8621 121.019 93.852V95.9176ZM121.019 93.6173C121.313 93.6549 121.493 93.6416 121.776 93.6416C123.137 93.6416 124.026 93.0677 124.026 91.5992C124.026 90.46 123.513 89.5796 121.628 89.5796C121.396 89.5796 121.24 89.5796 121.019 89.6039V93.6173Z" fill="#DDDDDD"/>
<path fill-rule="evenodd" clip-rule="evenodd" d="M129.646 95.2105C129.901 96.299 130.761 96.9367 131.715 96.9367C132.536 96.9367 133.404 96.4606 133.404 95.4934C133.404 93.7287 129.476 93.1931 129.476 91.0484C129.476 90.0335 130.407 89.2734 131.655 89.2734C132.681 89.2734 132.889 89.5808 133.32 89.5808C133.42 89.5808 133.465 89.5566 133.54 89.4597H133.735L133.942 91.0132H133.735C133.393 90.1328 132.609 89.5666 131.766 89.5666C130.955 89.5666 130.397 90.0336 130.397 90.72C130.397 92.4551 134.322 92.9212 134.322 95.1731C134.322 96.3739 133.258 97.2651 131.825 97.2651C131.151 97.2651 130.297 96.9367 130.122 96.9367C130.012 96.9367 129.928 96.9962 129.879 97.0723H129.67L129.414 95.2106L129.646 95.2105Z" fill="#DDDDDD"/>
<path fill-rule="evenodd" clip-rule="evenodd" d="M140.359 97.0735H137.383V96.8388C138.142 96.8036 138.304 96.6068 138.304 95.7879V90.5736C138.304 89.9137 138.07 89.7301 137.383 89.6926V89.4609H140.359V89.6926C139.588 89.6926 139.319 89.8619 139.319 90.6836V95.8716C139.319 96.5966 139.516 96.8388 140.359 96.8388V97.0735Z" fill="#DDDDDD"/>
<path fill-rule="evenodd" clip-rule="evenodd" d="M147.024 95.9429C147.024 96.6055 147.245 96.8375 147.988 96.8375H148.443V97.0722H144.586V96.8375H145.039C145.787 96.8375 146.008 96.6055 146.008 95.9429V89.8983H143.88C143.39 89.8983 143.169 90.1812 142.986 91.2557H142.766L142.959 89.2734H143.191C143.207 89.3489 143.253 89.3973 143.328 89.4214C143.4 89.4458 143.484 89.4596 143.574 89.4596H149.456C149.631 89.4596 149.814 89.4214 149.836 89.2734H150.073L150.267 91.2557H150.046C149.863 90.1812 149.642 89.8983 149.153 89.8983H147.024L147.024 95.9429Z" fill="#DDDDDD"/>
<path fill-rule="evenodd" clip-rule="evenodd" d="M157.801 94.3172H157.57C157.476 93.4501 157.244 93.3501 156.738 93.3501H154.674V95.9578C154.674 96.5206 154.878 96.631 155.331 96.631H157.217C158.071 96.631 158.329 96.3003 158.639 95.247H158.855L158.66 97.0735H152.164V96.8388H152.505C153.484 96.8388 153.655 96.5722 153.655 95.8342V90.6698C153.655 89.9864 153.494 89.6926 152.678 89.6926H152.409V89.4609H158.282L158.381 91.16H158.16C158.001 90.1207 157.697 89.8996 157.254 89.8996H154.674V92.9114H156.861C157.303 92.9114 157.51 92.701 157.57 91.9927H157.801L157.801 94.3172Z" fill="#DDDDDD"/>
<path fill-rule="evenodd" clip-rule="evenodd" d="M165.024 95.9429C165.024 96.6055 165.242 96.8375 165.989 96.8375H166.441V97.0722H162.586V96.8375H163.039C163.787 96.8375 164.008 96.6055 164.008 95.9429V89.8983H161.876C161.388 89.8983 161.167 90.1812 160.981 91.2557H160.766L160.959 89.2734H161.191C161.201 89.3489 161.253 89.3973 161.328 89.4214C161.401 89.4458 161.487 89.4596 161.57 89.4596H167.457C167.632 89.4596 167.812 89.4214 167.837 89.2734H168.068L168.267 91.2557H168.047C167.863 90.1812 167.643 89.8983 167.153 89.8983H165.024V95.9429Z" fill="#DDDDDD"/>
<path fill-rule="evenodd" clip-rule="evenodd" d="M179.339 67.4224C174.886 72.0958 173.532 78.2129 175.757 81.9815C175.757 81.9815 164.308 87.1585 153.485 82.4391C142.088 77.4697 132.722 84.4058 132.722 84.4058L132.711 81.6072C142.333 79.4467 140.85 76.4812 141.077 66.0803V51.0715C141.077 40.5988 140.904 40.5207 132.832 39.9439V37.7319C132.832 37.7319 137.441 37.7199 145.152 37.7319C152.86 37.752 156.99 37.7319 156.99 37.7319V39.9439C148.729 40.5207 148.555 40.5988 148.555 51.0715C148.555 51.0715 148.512 58.9377 148.555 66.3038C148.596 73.6235 148.696 76.543 152.502 79.4977C155.253 81.6316 158.234 82.1484 161.159 82.1891C164.077 82.2265 168.621 80.8506 170.922 78.3884C173.222 75.9258 173.979 73.5859 173.979 73.5859C174.795 71.8289 175.589 69.6146 176.422 67.0665L178.749 67.3386L179.339 67.4224Z" fill="#DDDDDD"/>
</svg>
