<svg width="85" height="20" viewBox="0 0 85 20" fill="none" xmlns="http://www.w3.org/2000/svg">
<g clip-path="url(#clip0_1580_14557)">
<path d="M16.4484 19.7893H13.7899C13.5534 19.7893 13.3691 19.5254 13.3691 19.262V7.00942C13.3691 6.82516 13.343 6.74578 13.2904 6.74578C13.264 6.74578 13.2111 6.82534 13.1589 6.904L10.6321 11.9366C10.4739 12.2271 10.1322 12.3846 9.79 12.3846H7.13174C6.7895 12.3846 6.4478 12.2271 6.28978 11.9366L3.73663 6.904C3.68425 6.82534 3.63134 6.74578 3.60551 6.74578C3.55296 6.74578 3.52659 6.82534 3.52659 7.00942V19.262C3.52659 19.5256 3.34202 19.7893 3.10543 19.7893H0.447169C0.21058 19.7893 0 19.6572 0 19.3936V1.26515C0 0.685063 0.473715 0.210938 1.05236 0.210938H3.2109C3.63152 0.210938 4.0003 0.47458 4.18434 0.843463L8.15863 8.90628C8.29011 9.14371 8.34284 9.27553 8.44796 9.27553C8.55307 9.27553 8.6058 9.14353 8.73728 8.90628L12.7109 0.843463C12.8956 0.47458 13.2639 0.210938 13.685 0.210938H15.8428C16.4218 0.210938 16.8959 0.685063 16.8959 1.26515V19.3936C16.8959 19.6572 16.6852 19.7893 16.4484 19.7893Z" fill="#DDDDDD"/>
<path d="M23.5538 19.7891H20.9483C20.6588 19.7891 20.4219 19.552 20.4219 19.2618V0.711642C20.4219 0.42178 20.6588 0.210938 20.9483 0.210938H23.5538C23.843 0.210938 24.0799 0.42178 24.0799 0.711642V19.2618C24.0799 19.552 23.843 19.7891 23.5538 19.7891Z" fill="#DDDDDD"/>
<path d="M34.4773 20C30.1344 20 26.9766 17.5759 26.9766 11.7782V8.22158C26.9766 2.42396 30.1344 0 34.4773 0C38.8202 0 41.9773 2.42396 41.9773 8.22158V11.7782C41.9773 17.5759 38.8195 20 34.4773 20ZM38.2928 8.22158C38.2928 4.74341 37.0559 3.18849 34.4771 3.18849C31.8983 3.18849 30.6608 4.74323 30.6608 8.22158V11.7782C30.6608 15.257 31.8974 16.811 34.4771 16.811C37.0568 16.811 38.2928 15.2568 38.2928 11.7782V8.22158Z" fill="#DDDDDD"/>
<path d="M59.1481 19.789H56.4371C56.1479 19.789 55.9637 19.5519 55.9637 19.2617V7.37803C55.9637 4.37416 54.9112 3.16209 52.3842 3.16209C51.0687 3.16209 49.6214 3.26715 48.7525 3.37293V19.2617C48.7525 19.5519 48.5418 19.789 48.2524 19.789H45.5945C45.3049 19.789 45.0938 19.5519 45.0938 19.2617V1.79144C45.0938 0.816968 45.3836 0.579367 46.1999 0.447905C47.6207 0.236703 50.4892 0 52.0162 0C56.9105 0 59.648 1.76558 59.648 7.37803V19.2617C59.648 19.5519 59.4371 19.789 59.1479 19.789H59.1481Z" fill="#DDDDDD"/>
<path d="M66.0146 19.7891H63.4093C63.119 19.7891 62.8828 19.552 62.8828 19.2618V0.711642C62.8828 0.42178 63.119 0.210938 63.4093 0.210938H66.0146C66.3039 0.210938 66.5405 0.42178 66.5405 0.711642V19.2618C66.5405 19.552 66.3039 19.7891 66.0146 19.7891Z" fill="#DDDDDD"/>
<path d="M83.8828 19.7893H80.7774C80.488 19.7893 80.3044 19.5782 80.0938 19.262L76.2248 13.0437L72.5931 19.262C72.4089 19.6048 72.1979 19.7893 71.9084 19.7893H69.0398C68.7508 19.7893 68.6188 19.6312 68.6188 19.4466C68.6188 19.3936 68.6455 19.3151 68.6719 19.2618L74.2775 9.90751L68.5137 0.711822C68.4873 0.659022 68.4609 0.606401 68.4609 0.553601C68.4609 0.369159 68.6457 0.210938 68.8823 0.210938H71.9879C72.2776 0.210938 72.5142 0.47458 72.6716 0.711642L76.5143 6.8512L80.0672 0.711642C80.1991 0.47458 80.4617 0.210938 80.7517 0.210938H83.6204C83.857 0.210938 84.0408 0.369159 84.0408 0.553601C84.0408 0.606221 84.0144 0.659022 83.9883 0.711822L78.4617 9.98671L84.2514 19.262C84.3039 19.3413 84.304 19.3938 84.304 19.4728C84.304 19.6312 84.1732 19.7894 83.8828 19.7894V19.7893Z" fill="#DDDDDD"/>
</g>
<defs>
<clipPath id="clip0_1580_14557">
<rect width="84.3038" height="20" fill="white"/>
</clipPath>
</defs>
</svg>
