<svg width="240" height="135" viewBox="0 0 240 135" fill="none" xmlns="http://www.w3.org/2000/svg">
<rect y="-0.00390625" width="240" height="135" rx="16" fill="#363636"/>
<path d="M177.129 69.8833H185.406C185.173 67.5932 183.843 66.0664 181.351 66.0664C179.024 66.0664 177.562 67.56 177.129 69.8833ZM181.351 79.741C176.299 79.741 173.706 76.0236 173.706 71.4764C173.706 66.9293 176.697 63.212 181.417 63.212C186.137 63.212 188.763 66.8629 188.763 71.045C188.763 71.5428 188.73 72.2399 188.663 72.5386H177.03C177.196 75.0943 178.626 76.8866 181.184 76.8866C183.279 76.8866 184.542 75.924 185.074 74.0653H188.464C187.7 77.4176 185.439 79.741 181.351 79.741ZM155.692 71.3437C155.692 66.5642 158.616 63.212 162.937 63.212C165.895 63.212 167.823 64.9379 168.554 67.2612C168.587 67.3608 168.688 67.3608 168.688 67.2612V63.4775H171.812V77.484C171.812 82.4626 169.053 85.8149 163.568 85.8149C159.315 85.8149 156.622 83.6575 156.223 80.4712H159.614C159.879 81.7988 160.877 82.9605 163.635 82.9605C167.126 82.9605 168.621 80.7698 168.688 77.5835L168.72 75.5589C168.72 75.4594 168.621 75.4594 168.587 75.5589C167.823 77.9818 165.663 79.4754 162.937 79.4754C158.616 79.4754 155.692 76.1231 155.692 71.3437ZM168.288 71.3437C168.288 68.2901 166.461 66.0664 163.635 66.0664C160.477 66.0664 159.016 68.2901 159.016 71.3437C159.016 74.3972 160.477 76.6211 163.635 76.6211C166.461 76.6211 168.288 74.364 168.288 71.3437ZM146.418 63.4775H149.376L149.343 67.2612C149.343 67.3608 149.443 67.3608 149.476 67.2612C150.307 64.8715 151.371 63.212 155.093 63.212V66.3651C150.872 66.2323 149.609 68.5888 149.609 71.9079V79.5086H146.418V63.4775ZM132.126 71.4764C132.126 74.53 133.622 76.8866 136.58 76.8866C139.538 76.8866 141.034 74.53 141.034 71.4764C141.034 68.4229 139.538 66.0664 136.58 66.0664C133.622 66.0664 132.126 68.4229 132.126 71.4764ZM144.424 71.4764C144.424 76.0568 141.466 79.741 136.58 79.741C131.694 79.741 128.736 76.0568 128.736 71.4764C128.736 66.8961 131.694 63.212 136.58 63.212C141.466 63.212 144.424 66.8961 144.424 71.4764ZM120.559 79.5086V66.2323H118.1V63.4775H120.626V63.0792C120.626 59.2291 122.753 56.9389 128.204 57.2044V60.2248C124.814 59.8929 123.75 61.0877 123.75 63.4775H128.204V66.2323H123.75V79.5086H120.559ZM105.571 69.8833H113.847C113.615 67.5932 112.285 66.0664 109.792 66.0664C107.466 66.0664 106.003 67.56 105.571 69.8833ZM109.792 79.741C104.74 79.741 102.148 76.0236 102.148 71.4764C102.148 66.9293 105.139 63.212 109.859 63.212C114.579 63.212 117.204 66.8629 117.204 71.045C117.204 71.5428 117.171 72.2399 117.105 72.5386H105.472C105.638 75.0943 107.067 76.8866 109.626 76.8866C111.72 76.8866 112.983 75.924 113.515 74.0653H116.905C116.141 77.4176 113.881 79.741 109.792 79.741ZM87.4235 68.4561H92.0102C95.2676 68.4561 97.0956 67.0621 97.0956 64.3737C97.0956 61.9507 95.7661 60.5567 92.2429 60.5567H87.4235V68.4561ZM84 79.5086V57.6359H92.1432C98.0263 57.6359 100.519 60.1584 100.519 64.0417C100.519 66.9293 98.691 69.6842 94.1707 69.8833C94.071 69.8833 94.071 70.016 94.1707 70.016C98.8572 70.5472 101.317 74.5632 101.317 79.5086H97.7271C97.7271 75.1275 95.7993 71.3769 91.1128 71.3769H87.4235V79.5086H84Z" fill="#DDDDDD"/>
<path d="M47.8031 57.3917C47.719 57.3565 47.7397 57.233 47.8308 57.2279C50.0456 57.0994 52.2761 57.2635 53.5964 57.5508C55.9406 58.0615 58.0514 58.9755 59.5059 61.2086C60.1304 62.1675 60.5845 63.2248 60.7281 64.3112C60.7375 64.3813 60.683 64.4436 60.6119 64.4436H52.6894C52.6273 64.4436 52.5768 64.396 52.5725 64.3348C52.4039 61.7947 51.0273 58.7374 47.8031 57.3917Z" fill="#DDDDDD"/>
<path d="M68.5277 79.2941C68.6117 79.3293 68.591 79.4528 68.4999 79.4578C66.2851 79.5863 64.0546 79.4222 62.7343 79.1349C60.3901 78.6243 58.2793 77.7102 56.8248 75.4772C56.2003 74.5182 55.7462 73.4609 55.6026 72.3746C55.5933 72.3045 55.6477 72.2422 55.7188 72.2422H63.6417C63.7038 72.2422 63.7543 72.2898 63.7586 72.3509C63.9272 74.891 65.3038 77.9483 68.5277 79.2941Z" fill="#DDDDDD"/>
<path d="M52.0625 65.1938C52.1125 65.124 52.0402 65.0331 51.9604 65.0653C50.0526 65.8395 41.7481 69.7726 43.4462 75.116C44.9394 79.7699 52.8741 79.5747 54.7044 79.4656C54.7954 79.4602 54.8158 79.3371 54.7317 79.3022C51.4567 77.9382 50.0859 74.8101 49.9513 72.2642C49.854 70.4202 50.3346 67.5991 52.0625 65.1938Z" fill="#DDDDDD"/>
<path d="M64.2849 71.4946C64.2348 71.5642 64.3071 71.6552 64.3869 71.6231C66.2947 70.8491 74.5996 66.9158 72.9015 61.5723C71.4083 56.9184 63.4733 57.1135 61.643 57.2223C61.5522 57.2278 61.5316 57.3505 61.6156 57.3857C64.891 58.7496 66.2618 61.8778 66.3964 64.424C66.4937 66.268 66.0127 69.0892 64.2849 71.4946Z" fill="#DDDDDD"/>
</svg>
